<svg width="20" height="20" viewBox="0 0 20 20" fill="none" xmlns="http://www.w3.org/2000/svg">
<path fill-rule="evenodd" clip-rule="evenodd" d="M1.36118 12.7154C-0.17906 6.75419 4.27594 1.40513 9.97895 1.40513C10.7732 1.40513 11.5957 1.51127 12.4338 1.72927C15.4796 2.53983 17.8665 4.99387 18.6223 8.05084C19.1806 10.3187 18.8773 12.4859 17.9733 14.2982C17.832 14.5808 17.7862 14.9134 17.873 15.2309C17.8731 15.2313 17.8732 15.2317 17.8733 15.232L18.897 19.05L15.1828 18.0565C15.1822 18.0563 15.1816 18.0561 15.181 18.056C15.0662 18.0243 14.9546 18.0126 14.8489 18.0126C14.6258 18.0126 14.4044 18.0739 14.2109 18.1793C12.9476 18.8597 11.5118 19.2544 9.97895 19.2544C9.26492 19.2544 8.52875 19.1694 7.77865 18.9861L7.77812 18.986C6.41695 18.6556 4.98747 17.7799 3.80341 16.6254C2.61925 15.4708 1.7119 14.068 1.36118 12.7154ZM9.97895 2.68671C7.59669 2.68671 5.39369 3.76699 3.93195 5.65542C2.47277 7.54054 1.98426 9.99406 2.60302 12.3929C2.89134 13.5091 3.67235 14.7077 4.69406 15.7053C5.7154 16.7025 6.94049 17.4629 8.0786 17.7398C8.71157 17.8927 9.3507 17.9728 9.97895 17.9728C11.2542 17.9728 12.469 17.665 13.5973 17.0564C13.983 16.8484 14.4165 16.7354 14.8489 16.7354C15.0761 16.7354 15.2964 16.7664 15.5092 16.8221L15.5107 16.8225L17.0859 17.2428L16.6354 15.5617C16.4706 14.9486 16.5438 14.2981 16.8287 13.7281C17.651 12.0793 17.8427 10.2264 17.3806 8.36057C16.7265 5.72739 14.7059 3.66191 12.106 2.97086L12.1048 2.97054C11.3969 2.77978 10.6812 2.68671 9.97895 2.68671Z" fill="#333333"/>
<path fill-rule="evenodd" clip-rule="evenodd" d="M9.97895 0.693604C3.82078 0.693604 -0.986903 6.47211 0.672304 12.8935C1.06406 14.4046 2.05701 15.9164 3.30669 17.1349C4.55638 18.3534 6.09419 19.3093 7.60977 19.6773C8.41524 19.8741 9.20811 19.9659 9.97895 19.9659C11.6364 19.9659 13.1878 19.5387 14.5492 18.8053L14.5509 18.8044C14.6488 18.7509 14.7542 18.7241 14.8489 18.7241C14.9018 18.7241 14.9487 18.7299 14.9924 18.7421L18.9221 19.7932L18.9332 19.7955L18.9364 19.7961C18.9526 19.7995 19.0089 19.8112 19.0649 19.8112C19.4367 19.8112 19.7396 19.4609 19.6393 19.0708L18.56 15.0457L18.5595 15.0437C18.523 14.9108 18.5392 14.7574 18.6099 14.6161C19.5884 12.6545 19.9124 10.314 19.313 7.88008C18.4956 4.57366 15.9158 1.91924 12.6159 1.04142L12.614 1.04093C11.7201 0.808341 10.8371 0.693604 9.97895 0.693604ZM9.97895 1.40513C4.27594 1.40513 -0.17906 6.75419 1.36118 12.7154C1.7119 14.068 2.61925 15.4708 3.80341 16.6254C4.98747 17.7799 6.41695 18.6556 7.77812 18.986L7.77865 18.9861C8.52875 19.1694 9.26492 19.2544 9.97895 19.2544C11.5118 19.2544 12.9476 18.8597 14.2109 18.1793C14.4044 18.0739 14.6258 18.0126 14.8489 18.0126C14.9546 18.0126 15.0662 18.0243 15.181 18.056L15.1828 18.0565L18.897 19.05L17.8733 15.232L17.873 15.2309C17.7862 14.9134 17.832 14.5808 17.9733 14.2982C18.8773 12.4859 19.1806 10.3187 18.6223 8.05084C17.8665 4.99387 15.4796 2.53983 12.4338 1.72927C11.5957 1.51127 10.7732 1.40513 9.97895 1.40513Z" fill="#333333"/>
</svg>
