<svg width="20" height="18" viewBox="0 0 20 18" fill="none" xmlns="http://www.w3.org/2000/svg">
<path d="M9.99939 17.8235C9.62918 17.8235 9.27579 17.7078 8.9771 17.4888C6.94934 16.0054 2.10293 12.3155 0.887119 10.0801C-0.703112 7.15882 0.251868 3.40697 3.01163 1.71699C3.90351 1.17156 4.91318 0.882324 5.93968 0.882324C7.47521 0.882324 8.9182 1.50212 9.99939 2.60537C11.0806 1.50212 12.5236 0.882324 14.0591 0.882324C15.0856 0.882324 16.0953 1.17156 16.9871 1.71699C19.7469 3.40697 20.7019 7.15882 19.1159 10.0801C17.9001 12.3155 13.0536 16.0054 11.0259 17.4888C10.723 17.7078 10.3696 17.8235 9.99939 17.8235ZM5.93968 2.12192C5.14877 2.12192 4.37048 2.34505 3.68054 2.76651C1.47189 4.12181 0.714633 7.13816 1.99776 9.4934C3.12522 11.5677 8.19881 15.3774 9.72594 16.493C9.8858 16.6087 10.1088 16.6087 10.2686 16.493C11.7958 15.3732 16.8694 11.5635 17.9968 9.4934C19.2799 7.13816 18.5227 4.11768 16.314 2.76651C15.6283 2.34505 14.85 2.12192 14.0591 2.12192C12.675 2.12192 11.3793 2.78304 10.5042 3.93174L9.99939 4.60112L9.49455 3.93174C8.61951 2.78304 7.32797 2.12192 5.93968 2.12192Z" fill="#333333"/>
</svg>
