<svg width="17" height="17" viewBox="0 0 17 17" fill="none" xmlns="http://www.w3.org/2000/svg">
<path d="M16.9489 4.99551C16.9075 4.09073 16.7638 3.47284 16.5537 2.93225C16.3403 2.36507 16.0057 1.85133 15.5733 1.4267C15.1488 0.994278 14.6349 0.659523 14.0677 0.446037C13.527 0.236053 12.9093 0.0924759 12.0045 0.0513611C11.098 0.00985718 10.8084 0 8.5 0C6.1916 0 5.90199 0.00985718 4.99551 0.0511017C4.09073 0.0924759 3.47297 0.236183 2.93225 0.446297C2.36507 0.659653 1.85133 0.994278 1.4267 1.4267C0.994278 1.8512 0.659523 2.36494 0.446037 2.93212C0.236053 3.47284 0.0924759 4.09073 0.0513611 4.99538C0.00985718 5.90199 0 6.19147 0 8.49987C0 10.8084 0.00985718 11.098 0.0513611 12.0045C0.0926056 12.9091 0.236313 13.527 0.446426 14.0677C0.659782 14.6348 0.994408 15.1487 1.42683 15.5732C1.85133 16.0056 2.3652 16.3402 2.93238 16.5536C3.47297 16.7638 4.09086 16.9074 4.99564 16.9488C5.90224 16.9901 6.19173 16.9999 8.50013 16.9999C10.8085 16.9999 11.0981 16.9901 12.0046 16.9488C12.9094 16.9074 13.5272 16.7638 14.0679 16.5536C15.2096 16.1121 16.1122 15.2095 16.5537 14.0677C16.7639 13.527 16.9075 12.9091 16.9489 12.0045C16.9901 11.0979 17 10.8084 17 8.5C17 6.19147 16.9901 5.90199 16.9489 4.99551ZM15.4188 11.9348C15.3811 12.7636 15.2426 13.2137 15.1262 13.5132C14.8402 14.2545 14.2544 14.8404 13.513 15.1264C13.2135 15.2427 12.7635 15.3812 11.9347 15.419C11.0386 15.4599 10.7697 15.4685 8.5 15.4685C6.23013 15.4685 5.96139 15.4599 5.06516 15.419C4.23651 15.3812 3.78645 15.2427 3.48685 15.1264C3.11772 14.99 2.78374 14.7728 2.50956 14.4904C2.2272 14.2163 2.00996 13.8824 1.87364 13.5132C1.7573 13.2137 1.61878 12.7636 1.58104 11.9348C1.54018 11.0386 1.53149 10.7697 1.53149 8.50013C1.53149 6.23038 1.54018 5.96165 1.58104 5.06529C1.61891 4.23651 1.7573 3.78645 1.87364 3.48698C2.00996 3.11772 2.22733 2.78374 2.50956 2.50956C2.78374 2.2272 3.11772 2.00996 3.48698 1.87377C3.78645 1.7573 4.23651 1.61891 5.06529 1.58104C5.96152 1.54018 6.23038 1.53149 8.5 1.53149H8.49987C10.7695 1.53149 11.0384 1.54018 11.9347 1.58117C12.7635 1.61891 13.2134 1.75743 13.513 1.87377C13.8821 2.01009 14.2161 2.22733 14.4903 2.50956C14.7727 2.78374 14.9899 3.11772 15.1261 3.48698C15.2426 3.78645 15.3811 4.23651 15.4188 5.06529C15.4597 5.96152 15.4684 6.23038 15.4684 8.5C15.4684 10.7697 15.4598 11.0385 15.4188 11.9348Z" fill="#333333"/>
<path d="M8.50004 4.13501C6.08944 4.13501 4.13525 6.08932 4.13525 8.49992C4.13525 10.9105 6.08944 12.8647 8.50004 12.8647C10.9108 12.8647 12.865 10.9105 12.865 8.49992C12.865 6.08932 10.9108 4.13501 8.50004 4.13501ZM8.50004 11.3332C6.93534 11.3331 5.66675 10.0646 5.66688 8.49979C5.66688 6.9351 6.93534 5.6665 8.50017 5.6665C10.065 5.66663 11.3335 6.9351 11.3335 8.49979C11.3335 10.0646 10.0649 11.3332 8.50004 11.3332Z" fill="#333333"/>
<path d="M14.0571 3.96272C14.0571 4.526 13.6005 4.98267 13.0372 4.98267C12.4738 4.98267 12.0171 4.526 12.0171 3.96272C12.0171 3.3993 12.4738 2.94263 13.0372 2.94263C13.6005 2.94263 14.0571 3.3993 14.0571 3.96272Z" fill="#333333"/>
</svg>
