<svg width="23" height="20" viewBox="0 0 23 20" fill="none" xmlns="http://www.w3.org/2000/svg">
<path d="M1.56201 19.7852C1.49375 19.7852 1.42526 19.7777 1.35699 19.7603C0.935805 19.6626 0.631348 19.3037 0.631348 18.8731V17.0168C0.631348 10.3637 6.06698 4.95061 12.7477 4.95061H13.0583V0.928396C13.0583 0.549741 13.2895 0.209383 13.6425 0.0670762C13.994 -0.0738712 14.3979 0.0113317 14.6614 0.284842L22.7391 8.63835C23.087 8.99729 23.087 9.56652 22.7391 9.92546L14.6614 18.279C14.3979 18.5525 13.9915 18.6368 13.6425 18.4967C13.2895 18.3544 13.0583 18.0141 13.0583 17.6354V13.6134H11.582C7.67254 13.6134 4.15923 15.7766 2.41213 19.2579C2.25171 19.5797 1.91494 19.7852 1.56201 19.7852ZM12.7477 6.80694C7.52828 6.80694 3.20626 10.7113 2.57368 15.7419C4.83276 13.2323 8.07257 11.7571 11.582 11.7571H13.9904C14.5049 11.7571 14.9224 12.1729 14.9224 12.6853V15.3336L20.7742 9.2819L14.9224 3.23023V5.87877C14.9224 6.39112 14.5049 6.80694 13.9904 6.80694H12.7477Z" fill="#333333"/>
</svg>
