<svg width="11" height="15" viewBox="0 0 11 15" fill="none" xmlns="http://www.w3.org/2000/svg">
<path d="M5.49999 0C8.25694 0 10.5 2.24306 10.5 5.00001C10.5 5.82765 10.2931 6.64825 9.89971 7.3761L5.77342 14.8389C5.71849 14.9384 5.61381 15 5.49999 15C5.38617 15 5.2815 14.9384 5.22656 14.8389L1.09875 7.37364C0.706908 6.64825 0.499985 5.82762 0.499985 4.99998C0.499985 2.24306 2.74304 0 5.49999 0ZM5.49999 7.5C6.87847 7.5 7.99998 6.37849 7.99998 5.00001C7.99998 3.62153 6.87847 2.50002 5.49999 2.50002C4.12152 2.50002 3 3.62153 3 5.00001C3 6.37849 4.12152 7.5 5.49999 7.5Z" fill="white"/>
</svg>
